<?xml version="1.0" standalone="no"?>
<!DOCTYPE svg PUBLIC "-//W3C//DTD SVG 20010904//EN"
 "http://www.w3.org/TR/2001/REC-SVG-20010904/DTD/svg10.dtd">
<svg version="1.0" xmlns="http://www.w3.org/2000/svg"
 width="1024.000000pt" height="1024.000000pt" viewBox="0 0 1024.000000 1024.000000"
 preserveAspectRatio="xMidYMid meet">
<metadata>
Created by potrace 1.14, written by Peter Selinger 2001-2017
</metadata>
<g transform="translate(0.000000,1024.000000) scale(0.100000,-0.100000)"
fill="#000000" stroke="none">
<path d="M5390 9005 c-373 -46 -692 -187 -983 -433 -157 -132 -326 -343 -412
-511 l-25 -50 -122 -3 c-68 -2 -125 -2 -126 -1 -7 3 43 27 132 63 l88 36 33
82 c36 87 158 281 219 346 20 21 35 40 33 42 -5 6 -228 -53 -325 -86 -366
-122 -730 -326 -1062 -594 -134 -108 -390 -366 -480 -482 -8 -11 -36 -44 -61
-74 -108 -129 -267 -378 -361 -566 -59 -117 -168 -386 -168 -413 0 -10 -4 -21
-8 -27 -5 -5 -14 -29 -21 -54 -8 -25 -17 -56 -22 -70 -8 -25 -52 -200 -69
-275 -61 -273 -85 -536 -76 -850 8 -293 32 -493 86 -725 42 -177 129 -440 192
-580 11 -25 29 -65 40 -90 42 -92 127 -259 167 -324 23 -38 41 -70 41 -72 0
-14 207 -290 289 -385 151 -175 297 -323 310 -315 8 5 11 79 11 247 0 258 -3
277 -54 334 -62 69 -165 208 -248 335 -116 178 -116 178 12 242 52 27 103 47
113 45 20 -2 20 -1 102 -167 32 -63 66 -127 76 -142 11 -14 19 -29 19 -32 0
-4 12 -25 27 -49 15 -23 39 -66 55 -96 l28 -53 0 -316 c0 -195 4 -339 11 -376
44 -231 142 -417 306 -578 136 -135 273 -208 499 -267 29 -8 453 -11 1365 -11
1414 0 1363 -2 1516 49 320 105 570 368 667 705 37 128 46 217 47 501 l1 260
28 50 c63 115 179 346 210 420 19 44 37 84 41 89 4 4 60 -18 123 -49 l116 -58
-26 -46 c-88 -151 -272 -407 -343 -476 l-41 -39 0 -273 c0 -194 3 -273 11
-273 14 0 210 197 308 308 120 138 263 338 364 507 35 58 177 340 177 350 0 4
16 43 35 87 114 258 192 571 246 981 15 114 14 631 -1 751 -16 127 -48 319
-66 396 -37 163 -38 164 -90 330 -74 239 -166 455 -276 648 -10 17 -28 49 -39
70 -165 293 -434 604 -776 896 -20 17 -49 62 -73 113 -155 330 -467 650 -797
817 -95 48 -107 53 -226 97 -122 44 -201 61 -392 84 -143 17 -234 17 -375 0z
m406 -430 c173 -28 393 -120 566 -236 79 -54 218 -188 281 -272 135 -179 220
-382 268 -632 8 -40 13 -137 13 -230 0 -395 -119 -681 -507 -1225 -234 -327
-402 -556 -584 -794 -236 -309 -239 -312 -259 -295 -7 6 -11 15 -8 20 3 5 1 8
-5 7 -5 -2 -41 38 -79 87 -395 517 -579 772 -831 1149 -199 298 -286 469 -345
674 -96 334 -64 725 84 1023 90 183 242 365 405 487 158 118 384 211 595 245
65 11 323 6 406 -8z m-1906 -845 c-11 -27 -26 -64 -34 -83 l-14 -35 -184 -4
c-174 -4 -187 -6 -272 -35 -49 -18 -94 -29 -99 -26 -6 3 -7 1 -3 -5 8 -14 -30
-35 -47 -26 -6 4 -9 3 -5 -1 5 -5 -3 -15 -16 -24 -13 -9 -39 -27 -57 -40 -18
-14 -29 -18 -24 -10 11 19 0 7 -66 -71 -29 -36 -56 -67 -59 -70 -3 -3 -10 -14
-17 -25 -6 -11 -16 -19 -22 -18 -6 2 -8 -4 -4 -14 4 -10 2 -14 -4 -10 -13 8
-26 -20 -16 -35 3 -6 2 -8 -3 -5 -6 3 -25 -36 -43 -86 l-32 -92 6 100 c8 133
20 186 60 270 56 117 187 250 306 310 56 29 163 64 226 75 27 4 137 8 245 9
l198 1 -20 -50z m-1076 -552 l-7 -183 -82 -140 c-45 -77 -106 -189 -134 -250
-29 -60 -57 -120 -63 -132 -13 -27 -30 -29 -63 -7 -13 8 -61 35 -106 58 -46
23 -87 49 -92 57 -7 11 8 43 57 122 36 59 66 110 66 112 0 7 139 204 193 275
59 75 226 270 233 270 2 0 1 -82 -2 -182z m1011 -40 c-1 -148 -10 -269 -31
-415 l-5 -33 -94 0 -95 0 0 -660 0 -660 135 0 135 0 1 348 c0 265 3 341 12
322 6 -14 30 -69 54 -123 l43 -97 0 -225 0 -225 169 0 169 0 30 -55 30 -55
-389 0 -389 0 0 -980 0 -980 1429 0 c1268 0 1430 2 1435 15 3 9 6 345 6 749
l0 733 57 88 58 88 10 -41 c5 -22 13 -44 18 -48 4 -4 7 -21 8 -38 l1 -31 8 32
c4 18 19 48 33 66 18 24 24 41 20 63 -3 20 -2 25 5 15 8 -11 12 -9 22 8 6 13
9 29 6 36 -3 8 0 12 7 9 13 -5 42 37 69 101 12 27 17 34 18 20 1 -15 3 -16 7
-5 3 8 13 19 21 24 8 4 10 11 5 15 -5 3 -4 21 4 41 9 28 12 -214 12 -1215 0
-687 -3 -1290 -8 -1340 -11 -106 -34 -181 -82 -260 -84 -139 -211 -240 -365
-291 l-89 -29 -1290 0 -1290 0 -80 28 c-197 70 -319 186 -398 382 l-32 80 -3
2105 c-2 1857 0 2115 13 2194 29 166 119 293 259 361 85 42 132 52 247 54 l86
1 -2 -172z m3661 -43 c93 -114 224 -316 306 -474 l28 -54 -42 -25 c-63 -36
-140 -74 -141 -70 -39 81 -142 269 -211 385 l-91 151 3 125 3 125 48 -52 c26
-28 70 -78 97 -111z m-4646 -581 l0 -204 -30 0 c-16 0 -30 3 -30 8 0 4 -15 13
-32 20 -51 21 -82 39 -92 55 -7 11 12 58 68 168 76 150 91 173 108 163 4 -3 8
-97 8 -210z m4564 26 c24 -41 54 -92 66 -112 l21 -37 -31 -16 c-18 -9 -33 -15
-34 -13 -2 2 -29 61 -60 132 -38 86 -54 135 -50 149 6 20 7 20 25 -4 10 -13
38 -58 63 -99z m-3239 -365 c266 -430 866 -1268 1244 -1738 193 -240 177 -223
193 -206 36 36 399 499 513 653 33 45 89 120 125 166 36 47 96 128 134 180 38
52 75 102 83 110 8 8 30 36 50 62 19 26 40 45 46 41 6 -3 7 -1 3 5 -3 6 17 45
45 86 44 65 55 75 75 72 14 -3 22 -1 19 5 -4 5 -11 7 -16 4 -12 -8 -11 6 1 25
8 12 12 13 19 2 7 -11 9 -10 14 3 4 9 3 13 -3 10 -18 -11 -11 10 15 45 14 19
25 29 25 23 0 -7 -4 -14 -9 -17 -5 -3 -8 -17 -8 -32 -1 -18 2 -22 8 -13 7 11
9 11 9 1 0 -7 5 -10 11 -6 8 5 6 10 -5 16 -15 8 -15 11 0 33 9 14 21 22 28 19
6 -3 3 1 -7 9 -18 15 -18 17 -2 41 20 31 20 31 22 9 1 -10 4 -36 7 -59 4 -36
-2 -52 -55 -145 -33 -57 -65 -113 -72 -123 -7 -11 -54 -87 -106 -170 -111
-179 -292 -451 -370 -556 -30 -41 -76 -105 -101 -141 -65 -95 -341 -455 -437
-570 l-82 -99 -114 138 c-98 117 -316 401 -413 538 -16 23 -72 102 -125 175
-377 526 -714 1103 -871 1494 -37 92 -118 322 -118 335 0 3 35 -67 78 -155 43
-88 109 -209 147 -270z m-1851 210 c47 -25 92 -45 100 -45 7 0 24 -8 37 -19
l23 -18 -31 -99 c-31 -95 -66 -224 -84 -309 -33 -151 -69 -425 -69 -530 0
-136 15 -125 -181 -125 -110 0 -170 4 -175 11 -3 6 -1 52 5 102 6 51 18 153
26 227 9 74 20 153 25 175 5 22 14 69 20 105 7 36 15 76 20 90 4 14 13 50 20
80 11 53 72 245 89 285 5 11 15 36 22 55 27 75 38 76 153 15z m5619 -81 c71
-182 142 -463 172 -679 15 -115 36 -367 31 -373 -2 -1 -101 -4 -220 -6 -149
-2 -216 1 -216 8 0 12 -15 146 -31 281 -22 189 -73 419 -135 608 -15 48 -26
88 -23 90 2 3 13 7 24 11 16 4 23 -2 36 -32 9 -20 36 -80 59 -132 63 -140 72
-162 121 -310 24 -74 49 -138 54 -142 6 -4 21 -8 35 -8 29 0 43 -19 61 -81 21
-75 21 -17 0 114 -28 169 -90 407 -144 550 l-45 118 57 29 c31 15 69 35 86 44
16 8 32 12 36 8 4 -4 23 -48 42 -98z m-5213 -107 c41 -17 85 -37 98 -45 l22
-14 0 -1017 0 -1016 -103 -48 c-110 -51 -133 -53 -143 -8 -3 14 -10 40 -16 56
-5 17 -14 45 -19 63 -5 17 -14 49 -20 70 -10 35 -15 58 -38 165 -24 110 -32
164 -51 322 -11 94 -20 196 -20 227 0 31 -4 68 -9 81 -19 49 0 56 144 59 l130
3 3 73 3 72 -135 0 c-117 0 -136 2 -145 17 -5 9 -6 26 -1 37 4 12 11 64 15
116 11 147 34 307 66 460 6 25 14 65 19 90 8 42 12 60 40 170 6 24 18 59 27
77 18 39 18 39 133 -10z m4684 -149 c64 -199 115 -457 131 -658 3 -41 8 -90
11 -107 l5 -33 -99 0 c-54 0 -101 -2 -103 -4 -2 -2 -3 -41 -1 -85 l4 -81 100
0 100 0 -7 -137 c-4 -76 -13 -192 -20 -258 -15 -141 -77 -447 -111 -557 -27
-86 -23 -85 -110 -39 l-41 22 -7 192 c-3 106 -4 554 -2 997 l4 805 44 27 c23
14 48 27 55 27 6 1 27 -50 47 -111z m-419 -28 c-3 -5 -12 -10 -18 -10 -7 0 -6
4 3 10 19 12 23 12 15 0z m-15 -34 c0 -3 -4 -8 -10 -11 -5 -3 -10 -1 -10 4 0
6 5 11 10 11 6 0 10 -2 10 -4z m-79 -59 c-10 -9 -11 -8 -5 6 3 10 9 15 12 12
3 -3 0 -11 -7 -18z m39 19 c0 -3 -4 -8 -10 -11 -5 -3 -10 -1 -10 4 0 6 5 11
10 11 6 0 10 -2 10 -4z m-57 -80 l-16 -31 27 24 c14 14 26 20 26 14 0 -6 -7
-13 -15 -17 -8 -3 -12 -11 -10 -18 3 -8 -1 -22 -9 -33 -9 -11 -16 -15 -16 -9
0 7 -6 14 -14 17 -11 5 -12 0 -2 -25 8 -24 8 -32 -1 -35 -7 -3 -13 -13 -13
-24 0 -10 -4 -19 -10 -19 -5 0 -8 24 -6 55 2 30 0 52 -5 49 -5 -3 -9 -3 -9 1
0 3 11 10 25 15 14 5 25 14 25 20 0 6 -6 8 -12 4 -9 -5 -9 -3 1 9 7 9 18 14
24 10 6 -4 8 0 5 9 -4 8 0 15 7 15 11 0 11 -6 -2 -31z m-2424 -809 l51 -98 0
-175 0 -174 168 0 168 0 42 -57 43 -58 -213 -3 -213 -2 3 -235 3 -235 284 0
285 0 0 86 0 86 50 -63 c28 -35 53 -74 56 -86 5 -20 13 -23 63 -24 56 0 56 -1
110 -60 l53 -59 -115 0 -116 0 5 -213 c3 -117 2 -220 -1 -229 -5 -13 -18 -16
-56 -15 l-49 2 0 228 0 227 -287 0 -288 0 0 -227 0 -228 -52 -3 -53 -3 0 230
0 231 -325 0 -325 0 0 60 0 60 325 0 325 0 0 235 0 235 -205 0 -205 0 0 -156
0 -155 -52 3 -53 3 -3 153 -3 152 -64 0 -65 0 0 60 0 60 325 0 325 0 0 277 c0
152 2 274 4 272 2 -2 27 -48 55 -102z m-2158 -127 c9 -215 45 -456 98 -670 23
-92 60 -209 70 -225 4 -5 13 -27 20 -48 14 -43 6 -61 -33 -71 -13 -3 -56 -24
-95 -47 -100 -57 -117 -53 -153 36 -15 39 -33 81 -39 95 -13 28 -18 41 -47
120 -22 57 -29 82 -63 210 -43 158 -66 273 -87 440 -26 202 -35 289 -29 304 6
15 27 16 179 14 l173 -3 6 -155z m5844 63 c-10 -145 -24 -273 -41 -373 -17
-107 -81 -359 -117 -465 -25 -71 -127 -325 -132 -325 -1 0 -73 34 -159 76
-124 59 -156 79 -152 92 2 9 16 58 30 107 63 220 109 505 128 789 l12 186 219
0 219 0 -7 -87z m-4125 35 c24 -26 26 -75 3 -100 -38 -42 -123 -5 -123 54 0
61 78 91 120 46z m2310 -1073 l0 -55 -197 1 c-115 1 -181 5 -158 9 l40 7 -50
2 c-28 0 -57 7 -64 14 -11 10 -13 10 -7 0 4 -7 2 -13 -3 -13 -19 0 -12 14 26
52 l38 37 188 1 187 0 0 -55z m-3482 -170 c1 -82 0 -155 -3 -162 -8 -23 -42 3
-61 45 -9 20 -32 67 -50 103 -38 75 -43 116 -16 125 44 15 72 30 72 37 0 5 12
7 28 5 l27 -3 3 -150z m4490 113 c26 -12 49 -23 51 -24 6 -5 -78 -206 -103
-246 l-23 -38 -1 138 c-2 142 3 192 19 192 5 0 31 -10 57 -22z m-1600 -150 c0
-13 3 -87 7 -165 l7 -143 -51 0 c-58 0 -53 -11 -56 125 -2 92 6 120 35 120 30
0 50 12 50 28 0 8 -4 7 -9 -2 -5 -8 -17 -16 -25 -17 -17 -2 -15 4 19 49 24 32
23 32 23 5z m502 -48 c39 -72 -53 -147 -110 -90 -35 35 -21 103 23 119 28 10
74 -5 87 -29z m-2226 -28 c27 -31 29 -66 6 -95 -40 -51 -120 -25 -122 40 -2
68 72 103 116 55z"/>
<path d="M5480 8029 c-351 -44 -640 -311 -711 -655 -26 -123 -22 -287 10 -406
46 -176 164 -350 316 -466 17 -13 24 -20 16 -16 -9 5 -12 3 -7 -5 4 -6 11 -9
16 -6 5 3 14 -1 22 -8 7 -7 16 -14 20 -16 4 -1 32 -12 61 -25 121 -54 186 -68
332 -73 171 -6 268 13 403 81 177 89 345 261 398 407 100 275 91 502 -29 734
-132 255 -366 420 -643 454 -98 12 -110 12 -204 0z m183 -304 c69 -18 138 -52
191 -94 47 -37 41 -39 -22 -6 -111 58 -279 71 -397 30 -159 -55 -292 -203
-325 -361 -9 -43 -15 -54 -27 -50 -8 3 -19 6 -24 6 -14 0 -11 61 7 121 24 82
57 140 114 202 124 135 316 196 483 152z m443 -620 c-30 -260 -286 -471 -546
-452 -109 8 -256 66 -254 100 1 11 -6 15 -21 14 -17 -1 -37 14 -74 56 -28 32
-51 61 -51 65 0 4 11 -5 24 -20 12 -15 27 -24 31 -20 5 4 5 1 1 -5 -4 -8 -1
-13 9 -13 9 0 13 -4 10 -10 -3 -5 -1 -10 5 -10 6 0 39 -14 74 -30 70 -34 177
-60 249 -60 52 0 142 27 221 67 118 60 209 169 249 299 21 69 24 74 51 74 l29
0 -7 -55z"/>
<path d="M5318 6743 c7 -3 16 -2 19 1 4 3 -2 6 -13 5 -11 0 -14 -3 -6 -6z"/>
<path d="M5364 6731 c20 -22 49 -32 66 -21 7 5 -6 14 -35 24 -47 15 -48 15
-31 -3z"/>
<path d="M3415 7620 c-18 -8 -17 -9 8 -9 16 -1 26 3 22 9 -3 6 -7 10 -8 9 -1
0 -11 -4 -22 -9z"/>
<path d="M3364 7594 c-18 -14 -18 -15 4 -4 12 6 22 13 22 15 0 8 -5 6 -26 -11z"/>
<path d="M3174 7478 l-19 -23 23 19 c21 18 27 26 19 26 -2 0 -12 -10 -23 -22z"/>
<path d="M6602 4850 c0 -19 2 -27 5 -17 2 9 2 25 0 35 -3 9 -5 1 -5 -18z"/>
<path d="M4950 3055 c-187 -53 -303 -233 -269 -419 33 -183 181 -306 368 -306
70 0 86 4 149 35 152 76 231 220 211 383 -25 216 -249 365 -459 307z"/>
<path d="M6775 5760 c-3 -5 -1 -10 4 -10 6 0 11 5 11 10 0 6 -2 10 -4 10 -3 0
-8 -4 -11 -10z"/>
<path d="M6626 5553 c-4 -9 -3 -20 1 -24 4 -4 9 3 9 17 2 28 -1 31 -10 7z"/>
<path d="M6604 5506 c-3 -8 -4 -23 -2 -33 3 -11 6 -6 9 15 6 34 2 42 -7 18z"/>
<path d="M6654 5493 c-2 -27 -1 -27 14 3 8 15 8 21 -1 21 -7 0 -13 -11 -13
-24z"/>
<path d="M6850 5830 c0 -13 18 -22 24 -11 3 5 -1 11 -9 15 -8 3 -15 1 -15 -4z"/>
<path d="M6822 5778 c2 -16 6 -24 11 -19 5 5 5 17 -2 28 -9 16 -10 15 -9 -9z"/>
</g>
</svg>
